<?xml version="1.0" standalone="no"?>
<!DOCTYPE svg PUBLIC "-//W3C//DTD SVG 20010904//EN"
 "http://www.w3.org/TR/2001/REC-SVG-20010904/DTD/svg10.dtd">
<svg version="1.0" xmlns="http://www.w3.org/2000/svg"
 width="1280.000000pt" height="325.000000pt" viewBox="0 0 1280.000000 325.000000"
 preserveAspectRatio="xMidYMid meet">
<metadata>
Created by potrace 1.15, written by Peter Selinger 2001-2017
</metadata>
<g transform="translate(0.000000,325.000000) scale(0.100000,-0.100000)"
fill="#000000" stroke="none">
<path d="M10460 3060 c-666 -32 -1566 -215 -2555 -521 -516 -160 -1874 -623
-1862 -635 2 -3 141 43 309 100 1533 524 2563 781 3438 857 203 18 635 15 815
-5 439 -50 790 -171 1015 -351 387 -310 488 -794 258 -1235 -72 -138 -121
-202 -253 -336 -250 -253 -588 -421 -1030 -513 -641 -133 -1395 -76 -2250 170
-642 185 -1296 454 -2247 926 -170 84 -308 151 -308 148 0 -3 279 -150 680
-358 319 -165 843 -412 1155 -544 1266 -536 2337 -744 3233 -628 648 85 1190
347 1516 735 82 98 126 155 126 166 0 4 11 21 23 38 25 33 107 198 107 215 0
6 6 25 14 43 43 102 70 276 69 443 -1 233 -89 464 -253 670 -245 305 -695 518
-1248 590 -127 16 -434 35 -537 33 -33 -1 -130 -4 -215 -8z"/>
<path d="M1943 2975 c-529 -67 -991 -291 -1354 -655 -229 -231 -403 -529 -465
-800 -24 -101 -24 -283 -1 -370 75 -285 306 -465 691 -539 567 -110 1437 26
2716 423 450 139 1768 591 1757 602 -2 2 -183 -57 -403 -132 -1407 -477 -2276
-698 -2962 -755 -172 -14 -531 -6 -647 15 -412 73 -643 239 -706 506 -17 75
-15 230 4 315 53 230 192 464 399 673 301 303 679 484 1168 559 160 24 543 24
725 -1 292 -39 633 -126 968 -245 338 -120 880 -361 1390 -618 211 -107 257
-129 242 -115 -16 15 -557 294 -865 446 -800 396 -1357 593 -1920 677 -179 27
-574 35 -737 14z"/>
<path d="M5912 1863 c-24 -8 -41 -17 -39 -19 4 -5 97 26 97 32 0 6 -11 4 -58
-13z"/>
</g>
</svg>
